<svg width="185" height="45" viewBox="0 0 185 45" fill="none" xmlns="http://www.w3.org/2000/svg">
<path d="M30.7672 41.7844H8.23279V45H30.7672V41.7844Z" fill="white"/>
<path d="M27.5491 33.8606H11.4189V39.9693H27.5491V33.8606Z" fill="white"/>
<path d="M0 0V32.0731H39V0H0ZM36.8679 28.6824C36.8679 29.18 36.5246 29.5762 36.0934 29.5762H2.90663C2.47543 29.5762 2.13206 29.18 2.13206 28.6824V3.39066C2.13206 2.89312 2.47543 2.49693 2.90663 2.49693H36.0934C36.5246 2.49693 36.8679 2.89312 36.8679 3.39066V28.6824Z" fill="white"/>
<path d="M3.68121 27.7887H35.3188V4.28439H3.68121V27.7887ZM24.7304 17.8931C24.7304 17.7181 24.8262 17.5706 24.946 17.4969L29.3139 15.1751L24.946 12.89C24.8182 12.8163 24.7304 12.6781 24.7304 12.4939V10.688C24.7304 10.3839 25.0019 10.1904 25.2334 10.3194L31.8133 13.8483C31.941 13.922 32.0289 14.0602 32.0289 14.2445V16.2439C32.0289 16.4189 31.9331 16.5663 31.8133 16.64L25.2334 20.1321C24.9939 20.2611 24.7224 20.0584 24.7224 19.7543V17.8931H24.7304ZM15.0522 23.3292L21.105 8.35688C21.1689 8.20946 21.2887 8.1081 21.4484 8.1081H22.8219C23.1014 8.1081 23.293 8.44901 23.1732 8.74385L17.1124 23.7162C17.0485 23.8636 16.9288 23.965 16.7691 23.965H15.3956C15.1241 23.965 14.9324 23.6241 15.0522 23.3292ZM6.9951 14.2537C6.9951 14.0786 7.09092 13.9312 7.2107 13.8575L13.7985 10.3286C14.0301 10.1996 14.3016 10.4023 14.3016 10.6972V12.5399C14.3016 12.715 14.2058 12.8624 14.086 12.9361L9.71807 15.2211L14.086 17.543C14.2138 17.6167 14.3016 17.7549 14.3016 17.9392V19.8188C14.3016 20.1136 14.0381 20.3163 13.7985 20.1873L7.2107 16.6953C7.08293 16.6216 6.9951 16.4834 6.9951 16.2991V14.2537Z" fill="white"/>
<path d="M56.5052 17.18C55.5332 17.18 54.5912 17.042 53.6792 16.766C52.7792 16.49 52.0652 16.124 51.5372 15.668L52.3472 13.85C52.8632 14.258 53.4932 14.594 54.2372 14.858C54.9932 15.11 55.7492 15.236 56.5052 15.236C57.4412 15.236 58.1372 15.086 58.5932 14.786C59.0612 14.486 59.2952 14.09 59.2952 13.598C59.2952 13.238 59.1632 12.944 58.8992 12.716C58.6472 12.476 58.3232 12.29 57.9272 12.158C57.5312 12.026 56.9912 11.876 56.3072 11.708C55.3472 11.48 54.5672 11.252 53.9672 11.024C53.3792 10.796 52.8692 10.442 52.4372 9.962C52.0172 9.47 51.8072 8.81 51.8072 7.982C51.8072 7.286 51.9932 6.656 52.3652 6.092C52.7492 5.516 53.3192 5.06 54.0752 4.724C54.8432 4.388 55.7792 4.22 56.8832 4.22C57.6512 4.22 58.4072 4.316 59.1512 4.508C59.8952 4.7 60.5372 4.976 61.0772 5.336L60.3392 7.154C59.7872 6.83 59.2112 6.584 58.6112 6.416C58.0112 6.248 57.4292 6.164 56.8652 6.164C55.9412 6.164 55.2512 6.32 54.7952 6.632C54.3512 6.944 54.1292 7.358 54.1292 7.874C54.1292 8.234 54.2552 8.528 54.5072 8.756C54.7712 8.984 55.1012 9.164 55.4972 9.296C55.8932 9.428 56.4332 9.578 57.1172 9.746C58.0532 9.962 58.8212 10.19 59.4212 10.43C60.0212 10.658 60.5312 11.012 60.9512 11.492C61.3832 11.972 61.5992 12.62 61.5992 13.436C61.5992 14.132 61.4072 14.762 61.0232 15.326C60.6512 15.89 60.0812 16.34 59.3132 16.676C58.5452 17.012 57.6092 17.18 56.5052 17.18ZM72.0915 14.084H65.7915L64.5495 17H62.1375L67.8075 4.4H70.1115L75.7995 17H73.3515L72.0915 14.084ZM71.3175 12.248L68.9415 6.74L66.5835 12.248H71.3175ZM77.402 4.4H79.742V15.02H86.33V17H77.402V4.4ZM88.1774 4.4H90.5174V17H88.1774V4.4ZM98.2634 11.726L96.2654 13.778V17H93.9254V4.4H96.2654V10.862L102.493 4.4H105.121L99.8294 10.034L105.445 17H102.709L98.2634 11.726ZM120.185 14.084H113.885L112.643 17H110.231L115.901 4.4H118.205L123.893 17H121.445L120.185 14.084ZM119.411 12.248L117.035 6.74L114.677 12.248H119.411ZM136.692 4.4V17H134.766L127.818 8.468V17H125.496V4.4H127.422L134.37 12.932V4.4H136.692ZM143.974 17.18C143.002 17.18 142.06 17.042 141.148 16.766C140.248 16.49 139.534 16.124 139.006 15.668L139.816 13.85C140.332 14.258 140.962 14.594 141.706 14.858C142.462 15.11 143.218 15.236 143.974 15.236C144.91 15.236 145.606 15.086 146.062 14.786C146.53 14.486 146.764 14.09 146.764 13.598C146.764 13.238 146.632 12.944 146.368 12.716C146.116 12.476 145.792 12.29 145.396 12.158C145 12.026 144.46 11.876 143.776 11.708C142.816 11.48 142.036 11.252 141.436 11.024C140.848 10.796 140.338 10.442 139.906 9.962C139.486 9.47 139.276 8.81 139.276 7.982C139.276 7.286 139.462 6.656 139.834 6.092C140.218 5.516 140.788 5.06 141.544 4.724C142.312 4.388 143.248 4.22 144.352 4.22C145.12 4.22 145.876 4.316 146.62 4.508C147.364 4.7 148.006 4.976 148.546 5.336L147.808 7.154C147.256 6.83 146.68 6.584 146.08 6.416C145.48 6.248 144.898 6.164 144.334 6.164C143.41 6.164 142.72 6.32 142.264 6.632C141.82 6.944 141.598 7.358 141.598 7.874C141.598 8.234 141.724 8.528 141.976 8.756C142.24 8.984 142.57 9.164 142.966 9.296C143.362 9.428 143.902 9.578 144.586 9.746C145.522 9.962 146.29 10.19 146.89 10.43C147.49 10.658 148 11.012 148.42 11.492C148.852 11.972 149.068 12.62 149.068 13.436C149.068 14.132 148.876 14.762 148.492 15.326C148.12 15.89 147.55 16.34 146.782 16.676C146.014 17.012 145.078 17.18 143.974 17.18ZM159.56 14.084H153.26L152.018 17H149.606L155.276 4.4H157.58L163.268 17H160.82L159.56 14.084ZM158.786 12.248L156.41 6.74L154.052 12.248H158.786ZM173.115 17L170.541 13.31C170.433 13.322 170.271 13.328 170.055 13.328H167.211V17H164.871V4.4H170.055C171.147 4.4 172.095 4.58 172.899 4.94C173.715 5.3 174.339 5.816 174.771 6.488C175.203 7.16 175.419 7.958 175.419 8.882C175.419 9.83 175.185 10.646 174.717 11.33C174.261 12.014 173.601 12.524 172.737 12.86L175.635 17H173.115ZM173.061 8.882C173.061 8.078 172.797 7.46 172.269 7.028C171.741 6.596 170.967 6.38 169.947 6.38H167.211V11.402H169.947C170.967 11.402 171.741 11.186 172.269 10.754C172.797 10.31 173.061 9.686 173.061 8.882ZM178.037 4.4H180.377V17H178.037V4.4Z" fill="white"/>
<path d="M51.929 34V26.795H56.439V27.719H53.029V29.952H55.922V30.887H53.029V34H51.929ZM59.7787 34.132C59.1407 34.132 58.675 33.9487 58.3817 33.582C58.0883 33.208 57.9417 32.6653 57.9417 31.954V28.621H59.0307V31.811C59.0307 32.2877 59.115 32.6397 59.2837 32.867C59.4523 33.087 59.742 33.197 60.1527 33.197C60.4313 33.197 60.6843 33.131 60.9117 32.999C61.1463 32.8597 61.3957 32.6287 61.6597 32.306V28.621H62.7487V34H61.8577L61.7697 33.109H61.7257C61.4617 33.417 61.172 33.6663 60.8567 33.857C60.5487 34.0403 60.1893 34.132 59.7787 34.132ZM68.1784 34.132C67.577 34.132 67.1187 33.9597 66.8034 33.615C66.488 33.2703 66.3304 32.7717 66.3304 32.119V27.07H64.4824V26.201H67.4194V32.185C67.4194 32.559 67.511 32.8303 67.6944 32.999C67.885 33.1603 68.1307 33.241 68.4314 33.241C68.71 33.241 69.0327 33.164 69.3994 33.01L69.6634 33.824C69.4067 33.9267 69.1684 34.0037 68.9484 34.055C68.7357 34.1063 68.479 34.132 68.1784 34.132ZM74.7741 34.132C74.1727 34.132 73.7144 33.9597 73.3991 33.615C73.0837 33.2703 72.9261 32.7717 72.9261 32.119V27.07H71.0781V26.201H74.0151V32.185C74.0151 32.559 74.1067 32.8303 74.2901 32.999C74.4807 33.1603 74.7264 33.241 75.0271 33.241C75.3057 33.241 75.6284 33.164 75.9951 33.01L76.2591 33.824C76.0024 33.9267 75.7641 34.0037 75.5441 34.055C75.3314 34.1063 75.0747 34.132 74.7741 34.132ZM86.8545 34.132C86.3338 34.132 85.8498 34.0403 85.4025 33.857C84.9552 33.6663 84.5592 33.4023 84.2145 33.065L84.8525 32.317C85.1312 32.5737 85.4465 32.7827 85.7985 32.944C86.1505 33.098 86.5245 33.175 86.9205 33.175C87.3825 33.175 87.7345 33.0833 87.9765 32.9C88.2258 32.7093 88.3505 32.4637 88.3505 32.163C88.3505 31.987 88.3175 31.8403 88.2515 31.723C88.1928 31.6057 88.1085 31.503 87.9985 31.415C87.8885 31.327 87.7565 31.25 87.6025 31.184C87.4485 31.1107 87.2798 31.0373 87.0965 30.964L86.0845 30.513C85.9012 30.4397 85.7178 30.3517 85.5345 30.249C85.3512 30.139 85.1862 30.0107 85.0395 29.864C84.8928 29.71 84.7718 29.534 84.6765 29.336C84.5885 29.1307 84.5445 28.896 84.5445 28.632C84.5445 28.3533 84.6032 28.093 84.7205 27.851C84.8378 27.609 85.0028 27.4 85.2155 27.224C85.4355 27.048 85.6922 26.9123 85.9855 26.817C86.2862 26.7143 86.6162 26.663 86.9755 26.663C87.4228 26.663 87.8408 26.7437 88.2295 26.905C88.6182 27.0663 88.9518 27.2863 89.2305 27.565L88.6585 28.269C88.4238 28.0637 88.1672 27.906 87.8885 27.796C87.6172 27.6787 87.2945 27.62 86.9205 27.62C86.5392 27.62 86.2312 27.7043 85.9965 27.873C85.7692 28.0417 85.6555 28.2727 85.6555 28.566C85.6555 28.72 85.6885 28.8557 85.7545 28.973C85.8278 29.083 85.9232 29.182 86.0405 29.27C86.1578 29.3507 86.2898 29.424 86.4365 29.49C86.5905 29.5487 86.7482 29.611 86.9095 29.677L87.8885 30.106C88.1158 30.194 88.3248 30.2967 88.5155 30.414C88.7062 30.524 88.8712 30.656 89.0105 30.81C89.1572 30.9567 89.2708 31.1327 89.3515 31.338C89.4322 31.536 89.4725 31.767 89.4725 32.031C89.4725 32.317 89.4138 32.5883 89.2965 32.845C89.1792 33.1017 89.0068 33.3253 88.7795 33.516C88.5522 33.7067 88.2772 33.857 87.9545 33.967C87.6318 34.077 87.2652 34.132 86.8545 34.132ZM94.4292 34.132C94.0332 34.132 93.6959 34.077 93.4172 33.967C93.1459 33.857 92.9259 33.703 92.7572 33.505C92.5959 33.307 92.4785 33.0723 92.4052 32.801C92.3319 32.5223 92.2952 32.2143 92.2952 31.877V29.501H90.8212V28.676L92.3392 28.621L92.4822 26.916H93.3842V28.621H95.9252V29.501H93.3842V31.877C93.3842 32.339 93.4759 32.6837 93.6592 32.911C93.8499 33.1383 94.1909 33.252 94.6822 33.252C94.9169 33.252 95.1332 33.2337 95.3312 33.197C95.5292 33.153 95.7235 33.0943 95.9142 33.021L96.1342 33.824C95.8922 33.9047 95.6355 33.9743 95.3642 34.033C95.0929 34.099 94.7812 34.132 94.4292 34.132ZM99.3639 34.132C99.1072 34.132 98.8652 34.0953 98.6379 34.022C98.4179 33.9487 98.2272 33.846 98.0659 33.714C97.9046 33.5747 97.7762 33.4097 97.6809 33.219C97.5929 33.0283 97.5489 32.8157 97.5489 32.581C97.5489 32.2803 97.6186 32.0163 97.7579 31.789C97.9046 31.5617 98.1282 31.3673 98.4289 31.206C98.7369 31.0447 99.1292 30.9127 99.6059 30.81C100.09 30.7073 100.669 30.6303 101.344 30.579C101.329 30.249 101.219 29.9667 101.014 29.732C100.816 29.4973 100.479 29.38 100.002 29.38C99.6719 29.38 99.3492 29.4423 99.0339 29.567C98.7259 29.6917 98.4399 29.831 98.1759 29.985L97.7689 29.248C97.9156 29.16 98.0806 29.072 98.2639 28.984C98.4472 28.8887 98.6416 28.8043 98.8469 28.731C99.0596 28.6577 99.2759 28.599 99.4959 28.555C99.7232 28.511 99.9542 28.489 100.189 28.489C100.937 28.489 101.498 28.6907 101.872 29.094C102.246 29.4973 102.433 30.0547 102.433 30.766V34H101.542L101.454 33.307H101.421C101.135 33.527 100.812 33.7213 100.453 33.89C100.101 34.0513 99.7379 34.132 99.3639 34.132ZM99.6719 33.263C99.9579 33.263 100.237 33.2007 100.508 33.076C100.787 32.9513 101.065 32.7753 101.344 32.548V31.272C100.816 31.316 100.376 31.3747 100.024 31.448C99.6719 31.514 99.3896 31.602 99.1769 31.712C98.9716 31.8147 98.8249 31.932 98.7369 32.064C98.6489 32.196 98.6049 32.3427 98.6049 32.504C98.6049 32.7753 98.7076 32.9697 98.9129 33.087C99.1256 33.2043 99.3786 33.263 99.6719 33.263ZM107.104 34.132C106.686 34.132 106.293 34.0697 105.927 33.945C105.567 33.8203 105.256 33.637 104.992 33.395C104.728 33.153 104.519 32.8597 104.365 32.515C104.218 32.163 104.145 31.7633 104.145 31.316C104.145 30.8687 104.225 30.469 104.387 30.117C104.548 29.765 104.768 29.468 105.047 29.226C105.325 28.984 105.644 28.8007 106.004 28.676C106.37 28.5513 106.759 28.489 107.17 28.489C107.61 28.489 107.995 28.566 108.325 28.72C108.655 28.8667 108.93 29.0463 109.15 29.259L108.622 29.952C108.409 29.776 108.189 29.6403 107.962 29.545C107.734 29.4423 107.489 29.391 107.225 29.391C106.939 29.391 106.675 29.4387 106.433 29.534C106.191 29.622 105.982 29.7503 105.806 29.919C105.637 30.0877 105.505 30.293 105.41 30.535C105.314 30.7697 105.267 31.03 105.267 31.316C105.267 31.602 105.311 31.866 105.399 32.108C105.494 32.3427 105.626 32.5443 105.795 32.713C105.971 32.8817 106.176 33.0137 106.411 33.109C106.645 33.197 106.906 33.241 107.192 33.241C107.522 33.241 107.815 33.1787 108.072 33.054C108.336 32.9293 108.574 32.779 108.787 32.603L109.26 33.307C108.952 33.571 108.614 33.7763 108.248 33.923C107.881 34.0623 107.5 34.132 107.104 34.132ZM110.982 34V26.201H112.071V31.283H112.115L114.766 28.621H115.987L113.875 30.755L116.251 34H115.052L113.204 31.426L112.071 32.57V34H110.982ZM124.009 34V26.795H125.835C126.92 26.795 127.752 27.0957 128.332 27.697C128.918 28.2983 129.212 29.1893 129.212 30.37C129.212 31.5433 128.922 32.4417 128.343 33.065C127.763 33.6883 126.946 34 125.89 34H124.009ZM125.109 33.109H125.769C126.524 33.109 127.096 32.878 127.485 32.416C127.881 31.954 128.079 31.272 128.079 30.37C128.079 29.468 127.881 28.797 127.485 28.357C127.096 27.9097 126.524 27.686 125.769 27.686H125.109V33.109ZM133.321 34.132C132.911 34.132 132.529 34.0697 132.177 33.945C131.825 33.8203 131.517 33.637 131.253 33.395C130.989 33.153 130.78 32.856 130.626 32.504C130.48 32.152 130.406 31.7523 130.406 31.305C130.406 30.865 130.483 30.4727 130.637 30.128C130.791 29.776 130.993 29.479 131.242 29.237C131.499 28.995 131.792 28.8117 132.122 28.687C132.452 28.555 132.797 28.489 133.156 28.489C133.552 28.489 133.904 28.5513 134.212 28.676C134.52 28.8007 134.777 28.9767 134.982 29.204C135.195 29.424 135.356 29.6917 135.466 30.007C135.576 30.315 135.631 30.656 135.631 31.03C135.631 31.1473 135.628 31.2573 135.62 31.36C135.613 31.4627 135.602 31.5507 135.587 31.624H131.495C131.554 32.1813 131.763 32.5957 132.122 32.867C132.489 33.1383 132.936 33.274 133.464 33.274C133.765 33.274 134.04 33.2337 134.289 33.153C134.539 33.065 134.784 32.9477 135.026 32.801L135.411 33.494C135.133 33.6773 134.817 33.8313 134.465 33.956C134.121 34.0733 133.739 34.132 133.321 34.132ZM133.189 29.347C132.984 29.347 132.79 29.38 132.606 29.446C132.423 29.5047 132.258 29.5963 132.111 29.721C131.965 29.8457 131.84 29.9997 131.737 30.183C131.635 30.3663 131.561 30.579 131.517 30.821H134.652C134.616 30.3297 134.465 29.963 134.201 29.721C133.945 29.4717 133.607 29.347 133.189 29.347ZM138.993 34L136.793 28.621H137.893L139.026 31.547C139.129 31.8183 139.224 32.086 139.312 32.35C139.407 32.614 139.503 32.878 139.598 33.142H139.642C139.737 32.878 139.829 32.614 139.917 32.35C140.005 32.086 140.1 31.8183 140.203 31.547L141.336 28.621H142.381L140.225 34H138.993ZM146.513 34.132C146.102 34.132 145.721 34.0697 145.369 33.945C145.017 33.8203 144.709 33.637 144.445 33.395C144.181 33.153 143.972 32.856 143.818 32.504C143.671 32.152 143.598 31.7523 143.598 31.305C143.598 30.865 143.675 30.4727 143.829 30.128C143.983 29.776 144.184 29.479 144.434 29.237C144.69 28.995 144.984 28.8117 145.314 28.687C145.644 28.555 145.988 28.489 146.348 28.489C146.744 28.489 147.096 28.5513 147.404 28.676C147.712 28.8007 147.968 28.9767 148.174 29.204C148.386 29.424 148.548 29.6917 148.658 30.007C148.768 30.315 148.823 30.656 148.823 31.03C148.823 31.1473 148.819 31.2573 148.812 31.36C148.804 31.4627 148.793 31.5507 148.779 31.624H144.687C144.745 32.1813 144.954 32.5957 145.314 32.867C145.68 33.1383 146.128 33.274 146.656 33.274C146.956 33.274 147.231 33.2337 147.481 33.153C147.73 33.065 147.976 32.9477 148.218 32.801L148.603 33.494C148.324 33.6773 148.009 33.8313 147.657 33.956C147.312 34.0733 146.931 34.132 146.513 34.132ZM146.381 29.347C146.175 29.347 145.981 29.38 145.798 29.446C145.614 29.5047 145.449 29.5963 145.303 29.721C145.156 29.8457 145.031 29.9997 144.929 30.183C144.826 30.3663 144.753 30.579 144.709 30.821H147.844C147.807 30.3297 147.657 29.963 147.393 29.721C147.136 29.4717 146.799 29.347 146.381 29.347ZM153.923 34.132C153.321 34.132 152.863 33.9597 152.548 33.615C152.232 33.2703 152.075 32.7717 152.075 32.119V27.07H150.227V26.201H153.164V32.185C153.164 32.559 153.255 32.8303 153.439 32.999C153.629 33.1603 153.875 33.241 154.176 33.241C154.454 33.241 154.777 33.164 155.144 33.01L155.408 33.824C155.151 33.9267 154.913 34.0037 154.693 34.055C154.48 34.1063 154.223 34.132 153.923 34.132ZM159.374 34.132C159.022 34.132 158.685 34.0697 158.362 33.945C158.04 33.8203 157.754 33.637 157.504 33.395C157.255 33.153 157.057 32.8597 156.91 32.515C156.764 32.163 156.69 31.7633 156.69 31.316C156.69 30.8687 156.764 30.469 156.91 30.117C157.057 29.765 157.255 29.468 157.504 29.226C157.754 28.984 158.04 28.8007 158.362 28.676C158.685 28.5513 159.022 28.489 159.374 28.489C159.726 28.489 160.064 28.5513 160.386 28.676C160.709 28.8007 160.995 28.984 161.244 29.226C161.494 29.468 161.692 29.765 161.838 30.117C161.985 30.469 162.058 30.8687 162.058 31.316C162.058 31.7633 161.985 32.163 161.838 32.515C161.692 32.8597 161.494 33.153 161.244 33.395C160.995 33.637 160.709 33.8203 160.386 33.945C160.064 34.0697 159.726 34.132 159.374 34.132ZM159.374 33.241C159.858 33.241 160.24 33.065 160.518 32.713C160.797 32.361 160.936 31.8953 160.936 31.316C160.936 30.7367 160.797 30.271 160.518 29.919C160.24 29.567 159.858 29.391 159.374 29.391C158.89 29.391 158.509 29.567 158.23 29.919C157.952 30.271 157.812 30.7367 157.812 31.316C157.812 31.8953 157.952 32.361 158.23 32.713C158.509 33.065 158.89 33.241 159.374 33.241ZM163.638 36.2V28.621H164.529L164.617 29.281H164.65C164.892 29.0463 165.171 28.8557 165.486 28.709C165.801 28.5623 166.12 28.489 166.443 28.489C166.795 28.489 167.107 28.555 167.378 28.687C167.657 28.8117 167.888 28.995 168.071 29.237C168.262 29.4717 168.405 29.7577 168.5 30.095C168.603 30.4323 168.654 30.81 168.654 31.228C168.654 31.69 168.588 32.1007 168.456 32.46C168.324 32.8193 168.144 33.1237 167.917 33.373C167.697 33.615 167.44 33.802 167.147 33.934C166.854 34.066 166.549 34.132 166.234 34.132C165.985 34.132 165.724 34.077 165.453 33.967C165.182 33.8497 164.932 33.6847 164.705 33.472H164.672L164.727 34.44V36.2H163.638ZM166.025 33.23C166.458 33.23 166.817 33.0613 167.103 32.724C167.389 32.3793 167.532 31.8843 167.532 31.239C167.532 30.6743 167.422 30.227 167.202 29.897C166.982 29.567 166.63 29.402 166.146 29.402C165.926 29.402 165.695 29.4607 165.453 29.578C165.211 29.688 164.969 29.8713 164.727 30.128V32.669C164.954 32.8743 165.185 33.021 165.42 33.109C165.655 33.1897 165.856 33.23 166.025 33.23ZM172.896 34.132C172.485 34.132 172.104 34.0697 171.752 33.945C171.4 33.8203 171.092 33.637 170.828 33.395C170.564 33.153 170.355 32.856 170.201 32.504C170.054 32.152 169.981 31.7523 169.981 31.305C169.981 30.865 170.058 30.4727 170.212 30.128C170.366 29.776 170.567 29.479 170.817 29.237C171.073 28.995 171.367 28.8117 171.697 28.687C172.027 28.555 172.371 28.489 172.731 28.489C173.127 28.489 173.479 28.5513 173.787 28.676C174.095 28.8007 174.351 28.9767 174.557 29.204C174.769 29.424 174.931 29.6917 175.041 30.007C175.151 30.315 175.206 30.656 175.206 31.03C175.206 31.1473 175.202 31.2573 175.195 31.36C175.187 31.4627 175.176 31.5507 175.162 31.624H171.07C171.128 32.1813 171.337 32.5957 171.697 32.867C172.063 33.1383 172.511 33.274 173.039 33.274C173.339 33.274 173.614 33.2337 173.864 33.153C174.113 33.065 174.359 32.9477 174.601 32.801L174.986 33.494C174.707 33.6773 174.392 33.8313 174.04 33.956C173.695 34.0733 173.314 34.132 172.896 34.132ZM172.764 29.347C172.558 29.347 172.364 29.38 172.181 29.446C171.997 29.5047 171.832 29.5963 171.686 29.721C171.539 29.8457 171.414 29.9997 171.312 30.183C171.209 30.3663 171.136 30.579 171.092 30.821H174.227C174.19 30.3297 174.04 29.963 173.776 29.721C173.519 29.4717 173.182 29.347 172.764 29.347ZM177.379 34V28.621H178.281L178.369 29.875H178.402C178.681 29.435 179.018 29.094 179.414 28.852C179.818 28.61 180.261 28.489 180.745 28.489C180.958 28.489 181.145 28.5073 181.306 28.544C181.468 28.5733 181.633 28.6283 181.801 28.709L181.559 29.644C181.376 29.5853 181.218 29.5413 181.086 29.512C180.954 29.4827 180.786 29.468 180.58 29.468C180.192 29.468 179.818 29.578 179.458 29.798C179.099 30.018 178.769 30.3993 178.468 30.942V34H177.379Z" fill="white"/>
</svg>
