<svg width="29" height="28" viewBox="0 0 29 28" fill="none" xmlns="http://www.w3.org/2000/svg">
<path d="M14.5 16.625C16.0015 16.625 17.2188 15.4497 17.2188 14C17.2188 12.5503 16.0015 11.375 14.5 11.375C12.9985 11.375 11.7812 12.5503 11.7812 14C11.7812 15.4497 12.9985 16.625 14.5 16.625Z" fill="white"/>
<path d="M29 14.0032C29 11.9203 26.5942 9.94644 22.9056 8.72236C23.7568 4.64637 23.3785 1.40352 21.7116 0.365301C21.3274 0.121767 20.8781 0.00640869 20.3875 0.00640869V1.43557C20.6594 1.43557 20.8781 1.49325 21.0614 1.6022C21.8653 2.10208 22.214 4.00549 21.9421 6.45365C21.8771 7.05608 21.7707 7.69055 21.6406 8.33783C20.4821 8.03021 19.2171 7.79309 17.8871 7.63928C17.0891 6.45365 16.2615 5.37697 15.428 4.43488C17.3551 2.49302 19.1639 1.42916 20.3934 1.42916V0C18.7678 0 16.6398 1.25612 14.4882 3.43511C12.3365 1.26894 10.2085 0.0256353 8.58296 0.0256353V1.45479C9.80656 1.45479 11.6213 2.51225 13.5483 4.44129C12.7208 5.38338 11.8932 6.45365 11.107 7.63928C9.7711 7.79309 8.50612 8.03021 7.34753 8.34424C7.21158 7.70336 7.11109 7.08171 7.04015 6.48569C6.76233 4.03754 7.10518 2.13413 7.90318 1.62783C8.08051 1.51247 8.31105 1.4612 8.58296 1.4612V0.0320439C8.08642 0.0320439 7.63718 0.147402 7.24704 0.390936C5.58602 1.42916 5.21362 4.6656 6.07073 8.72877C2.39401 9.95926 0 11.9268 0 14.0032C0 16.0861 2.40583 18.06 6.09437 19.284C5.24317 23.36 5.62148 26.6029 7.28842 27.6411C7.67265 27.8846 8.12189 28 8.61843 28C10.244 28 12.372 26.7439 14.5236 24.5649C16.6753 26.7311 18.8033 27.9744 20.4289 27.9744C20.9254 27.9744 21.3746 27.859 21.7648 27.6155C23.4258 26.5772 23.7982 23.3408 22.9411 19.2776C26.606 18.0536 29 16.0797 29 14.0032ZM21.3037 9.72854C21.085 10.5553 20.8131 11.4076 20.5057 12.26C20.2633 11.7473 20.0092 11.2346 19.7313 10.7219C19.4594 10.2092 19.1698 9.70931 18.8801 9.22225C19.7195 9.35683 20.5294 9.52346 21.3037 9.72854ZM18.5964 16.5539C18.1353 17.4191 17.6625 18.2394 17.1718 19.0021C16.2911 19.0854 15.3985 19.1302 14.5 19.1302C13.6074 19.1302 12.7148 19.0854 11.84 19.0085C11.3494 18.2458 10.8706 17.4319 10.4095 16.5731C9.96025 15.7336 9.55239 14.8812 9.17998 14.0224C9.54647 13.1637 9.96025 12.3049 10.4036 11.4653C10.8647 10.6001 11.3375 9.77981 11.8282 9.01717C12.7089 8.93385 13.6015 8.88899 14.5 8.88899C15.3926 8.88899 16.2852 8.93385 17.16 9.01076C17.6506 9.7734 18.1294 10.5873 18.5905 11.4461C19.0397 12.2856 19.4476 13.138 19.82 13.9968C19.4476 14.8556 19.0397 15.7143 18.5964 16.5539ZM20.5057 15.7208C20.8249 16.5795 21.0968 17.4383 21.3214 18.2715C20.5471 18.4765 19.7313 18.6496 18.8861 18.7842C19.1757 18.2907 19.4654 17.7844 19.7373 17.2653C20.0092 16.7526 20.2633 16.2335 20.5057 15.7208ZM14.5118 22.5589C13.9621 21.9437 13.4124 21.258 12.8685 20.5081C13.4005 20.5338 13.9444 20.553 14.4941 20.553C15.0497 20.553 15.5995 20.5402 16.1374 20.5081C15.6054 21.258 15.0556 21.9437 14.5118 22.5589ZM10.1139 18.7842C9.27456 18.6496 8.46474 18.4829 7.69038 18.2779C7.90909 17.4511 8.181 16.5988 8.48838 15.7464C8.73074 16.2591 8.98492 16.7718 9.26274 17.2845C9.54056 17.7972 9.8243 18.2971 10.1139 18.7842ZM14.4823 5.44747C15.032 6.06271 15.5817 6.74845 16.1256 7.49828C15.5936 7.47265 15.0497 7.45342 14.5 7.45342C13.9444 7.45342 13.3946 7.46624 12.8567 7.49828C13.3887 6.74845 13.9384 6.06271 14.4823 5.44747ZM10.108 9.22225C9.81839 9.71572 9.52874 10.222 9.25683 10.7411C8.98492 11.2538 8.73074 11.7665 8.48838 12.2792C8.16918 11.4205 7.89727 10.5617 7.67265 9.72854C8.447 9.52987 9.26274 9.35683 10.108 9.22225ZM4.75846 17.2461C2.66592 16.2783 1.31227 15.0094 1.31227 14.0032C1.31227 12.997 2.66592 11.7217 4.75846 10.7604C5.26682 10.5232 5.82246 10.3117 6.39584 10.1131C6.73278 11.3692 7.17611 12.6766 7.72585 14.016C7.18202 15.3491 6.7446 16.65 6.41358 17.8997C5.82837 17.7011 5.27273 17.4832 4.75846 17.2461ZM7.93865 26.4042C7.13473 25.9043 6.78598 24.0009 7.05789 21.5528C7.12291 20.9503 7.22931 20.3159 7.35936 19.6686C8.51794 19.9762 9.78292 20.2133 11.1129 20.3671C11.9109 21.5528 12.7385 22.6294 13.572 23.5715C11.6449 25.5134 9.83612 26.5772 8.6066 26.5772C8.3406 26.5708 8.11598 26.5132 7.93865 26.4042ZM21.9598 21.5207C22.2377 23.9689 21.8948 25.8723 21.0968 26.3786C20.9195 26.4939 20.689 26.5452 20.417 26.5452C19.1934 26.5452 17.3787 25.4878 15.4517 23.5587C16.2793 22.6166 17.1068 21.5463 17.893 20.3607C19.2289 20.2069 20.4939 19.9698 21.6525 19.6558C21.7884 20.303 21.8948 20.9247 21.9598 21.5207ZM24.2356 17.2461C23.7273 17.4832 23.1716 17.6947 22.5982 17.8933C22.2613 16.6372 21.818 15.3298 21.2682 13.9904C21.8121 12.6574 22.2495 11.3564 22.5805 10.1067C23.1657 10.3053 23.7214 10.5232 24.2415 10.7604C26.3341 11.7281 27.6877 12.997 27.6877 14.0032C27.6818 15.0094 26.3282 16.2847 24.2356 17.2461Z" fill="white"/>
</svg>
